<?xml version="1.0" encoding="UTF-8"?>
<svg id="Layer_1" data-name="Layer 1" xmlns="http://www.w3.org/2000/svg" version="1.1" viewBox="0 0 200 60">
  <rect x="8.28" y="5.94" width="8.3" height="29.8" fill="#002e46" stroke-width="0"/>
  <path d="M29.44,23.7c-2.72-.95-4.69-2.14-5.89-3.57-1.2-1.43-1.81-3.31-1.81-5.63,0-1.89.52-3.54,1.55-4.95,1.03-1.4,2.44-2.48,4.24-3.23,1.79-.75,3.85-1.12,6.17-1.12,3.01,0,5.86.52,8.56,1.55v6.02c-2.72-.77-5.35-1.16-7.87-1.16-2.95,0-4.43.77-4.43,2.32,0,.57.26,1.06.77,1.46.52.4,1.46.83,2.84,1.29l2.58.86c2.95.98,5.05,2.14,6.3,3.5,1.25,1.36,1.87,3.18,1.87,5.44,0,3.15-1.12,5.61-3.37,7.35-2.25,1.75-5.41,2.62-9.48,2.62-1.75,0-3.44-.15-5.07-.45-1.63-.3-3.02-.71-4.17-1.22v-6.11c1.4.37,2.96.68,4.67.92,1.71.24,3.26.37,4.67.37,1.49,0,2.59-.19,3.31-.58.72-.39,1.07-1,1.07-1.83,0-.46-.09-.83-.28-1.12-.19-.29-.54-.57-1.07-.84-.53-.27-1.41-.62-2.65-1.05" fill="#002e46" stroke-width="0"/>
  <polyline points="54.89 35.74 54.89 12.43 46.25 12.43 46.25 5.94 71.84 5.94 71.84 12.43 63.19 12.43 63.19 35.74" fill="#002e46" stroke-width="0"/>
  <polyline points="93.38 35.74 93.38 23.83 83.7 23.83 83.7 35.74 75.41 35.74 75.41 5.94 83.7 5.94 83.7 17.38 93.38 17.38 93.38 5.94 101.68 5.94 101.68 35.74" fill="#002e46" stroke-width="0"/>
  <path d="M126.02,35.74l-1.63-5.76h-9.12l-1.55,5.76h-8.77l10.49-29.8h9.16l10.49,29.8M116.82,24.13h6.02l-3.05-11.05-2.97,11.05Z" fill="#002e46" stroke-width="0"/>
  <path d="M138.36,35.74V5.94h12.3c3.41,0,6.12.87,8.13,2.6,2.01,1.74,3.01,4.09,3.01,7.07,0,1.75-.39,3.31-1.18,4.69-.79,1.38-1.9,2.48-3.33,3.31l6.58,12.13h-8.6l-5.25-10.41h-3.79v10.41M146.23,19.74h3.53c1.26,0,2.24-.34,2.95-1.03.7-.69,1.05-1.68,1.05-2.97,0-2.61-1.36-3.91-4.09-3.91h-3.44v7.91Z" fill="#002e46" stroke-width="0"/>
  <path d="M186.95,35.74l-1.63-5.76h-9.12l-1.55,5.76h-8.77l10.49-29.8h9.16l10.49,29.8M177.75,24.13h6.02l-3.05-11.05-2.97,11.05Z" fill="#002e46" stroke-width="0"/>
  <line x1="4.13" y1="40.37" x2="196.64" y2="40.37" fill="none" stroke="#002e46" stroke-miterlimit="10" stroke-width="3"/>
  <g>
    <path d="M5.52,54.5h-1.39v-8.28h1.95l2.68,6.51,2.7-6.51h1.95v8.28h-1.39v-6.53l-2.71,6.53h-1.08l-2.71-6.52v6.52Z" fill="#002e46" stroke-width="0"/>
    <path d="M25.33,46.22h1.41v4.9c0,2.14-1.46,3.67-3.51,3.67s-3.52-1.53-3.52-3.67v-4.9h1.41v4.87c0,1.29.82,2.47,2.1,2.48,1.25,0,2.09-1.05,2.09-2.48v-4.87Z" fill="#002e46" stroke-width="0"/>
    <path d="M33.05,54.5v-8.28h1.4v7.06h3.9v1.22h-5.31Z" fill="#002e46" stroke-width="0"/>
    <path d="M44.65,47.43h-2.65v-1.2h6.7v1.2h-2.64v7.07h-1.4v-7.07Z" fill="#002e46" stroke-width="0"/>
    <path d="M55.64,46.22v8.28h-1.4v-8.28h1.4Z" fill="#002e46" stroke-width="0"/>
    <path d="M69.89,54.5v-8.28h3.74c1.6,0,2.74.94,2.74,2.22,0,.81-.51,1.51-1.23,1.71.85.21,1.46,1.03,1.46,1.99,0,1.38-1.22,2.36-2.92,2.36h-3.79ZM71.3,47.38v2.23h2.13c.9,0,1.53-.46,1.53-1.11s-.63-1.12-1.53-1.12h-2.13ZM73.45,50.71h-2.15v2.63h2.15c1.02,0,1.74-.56,1.74-1.32s-.72-1.31-1.74-1.31Z" fill="#002e46" stroke-width="0"/>
    <path d="M84.1,54.5h-1.4v-8.28h3.81c1.81,0,3.11,1.11,3.11,2.69,0,1.11-.81,2.09-1.93,2.38l2.07,3.2h-1.61l-1.82-2.99h-2.22v2.99ZM84.1,47.38v3h2.24c1.08,0,1.87-.62,1.87-1.47,0-.97-.78-1.53-1.87-1.53h-2.24Z" fill="#002e46" stroke-width="0"/>
    <path d="M96.47,54.5h-1.5l2.96-8.28h2.03l2.95,8.28h-1.48l-.55-1.54h-3.86l-.55,1.54ZM97.33,51.9h3.26l-1.64-4.46-1.62,4.46Z" fill="#002e46" stroke-width="0"/>
    <path d="M114.07,52.79v-6.57h1.37v8.28h-1.71l-3.81-6.57v6.57h-1.38v-8.28h1.71l3.82,6.57Z" fill="#002e46" stroke-width="0"/>
    <path d="M121.82,46.22h2.82c2.88,0,4.79,1.65,4.79,4.14s-1.92,4.14-4.79,4.14h-2.82v-8.28ZM124.63,47.39h-1.43v5.94h1.43c2.02,0,3.39-1.15,3.39-2.97s-1.37-2.97-3.39-2.97Z" fill="#002e46" stroke-width="0"/>
    <path d="M143.26,46.22h2.82c2.88,0,4.79,1.65,4.79,4.14s-1.92,4.14-4.79,4.14h-2.82v-8.28ZM146.07,47.39h-1.43v5.94h1.43c2.02,0,3.39-1.15,3.39-2.97s-1.37-2.97-3.39-2.97Z" fill="#002e46" stroke-width="0"/>
    <path d="M158.23,46.22v8.28h-1.4v-8.28h1.4Z" fill="#002e46" stroke-width="0"/>
    <path d="M170.15,52.79v-6.57h1.37v8.28h-1.71l-3.81-6.57v6.57h-1.38v-8.28h1.71l3.82,6.57Z" fill="#002e46" stroke-width="0"/>
    <path d="M179.25,53.31h4.49v1.19h-5.84v-8.28h5.73v1.19h-4.37v2.28h3.9v1.08h-3.9v2.54Z" fill="#002e46" stroke-width="0"/>
    <path d="M191.11,54.5h-1.4v-8.28h3.81c1.81,0,3.11,1.11,3.11,2.69,0,1.11-.81,2.09-1.93,2.38l2.07,3.2h-1.61l-1.82-2.99h-2.22v2.99ZM191.11,47.38v3h2.24c1.08,0,1.87-.62,1.87-1.47,0-.97-.78-1.53-1.87-1.53h-2.24Z" fill="#002e46" stroke-width="0"/>
  </g>
  <rect x="3.23" y="5.94" width="8.3" height="3.25" fill="#8e5aa4" stroke-width="0"/>
  <rect x="3.23" y="10.36" width="8.3" height="3.25" fill="#595aa7" stroke-width="0"/>
  <rect x="3.23" y="14.78" width="8.3" height="3.24" fill="#1fc0e2" stroke-width="0"/>
  <rect x="3.23" y="19.21" width="8.3" height="3.25" fill="#8ec63e" stroke-width="0"/>
  <rect x="3.23" y="23.63" width="8.3" height="3.25" fill="#ffd84c" stroke-width="0"/>
  <rect x="3.23" y="28.05" width="8.3" height="3.24" fill="#f1622f" stroke-width="0"/>
  <rect x="3.23" y="32.47" width="8.3" height="3.25" fill="#e81b3c" stroke-width="0"/>
</svg>